Coordinates
version=1
nRows=19
nColumns=33
inDegrees=yes

Units are S.I. units (second, meters, Newtons, ...)
Angles are in degrees.

endheader
time	ground_thorax_rot_x	ground_thorax_rot_y	ground_thorax_rot_z	ground_thorax_tx	ground_thorax_ty	ground_thorax_tz	clav_prot_r	clav_elev_r	scapula_abduction_r	scapula_elevation_r	scapula_upward_rot_r	scapula_winging_r	shoulder_elv_r	plane_of_elev_r	axial_rot_r	elbow_flexion_r	pro_sup_r	wrist_flex_r	wrist_dev_r	clav_prot_l	clav_elev_l	scapula_abduction_l	scapula_elevation_l	scapula_upward_rot_l	scapula_winging_l	shoulder_elv_l	plane_of_elev_l	axial_rot_l	elbow_flexion_l	pro_sup_l	wrist_flex_l	wrist_dev_l	
4.3200	-26.746643	-30.303464	43.693446	29.111555	777.731511	-45.328059	29.967966	-45.000000	39.648863	-45.000000	-45.000000	-1544.167625	-2084.888858	20.024781	-140.355298	360.801896	173.066540	12.985166	12.139297	-0.916308	31.218372	-28.417864	-45.000000	-45.000000	-2794.866483	1350.059083	134.282294	-112.550434	2151.103254	-310.367500	10.468566	-16.255220	
4.3300	-26.952788	-30.133753	43.363762	26.976691	777.893044	-45.229104	29.961122	-45.000000	39.607156	-45.000000	-45.000000	-1544.253179	-2084.866041	20.028604	-140.333112	360.781540	173.014627	12.985903	12.180458	-0.939757	31.229619	-28.408007	-45.000000	-45.000000	-2794.840085	1350.048995	134.263833	-112.547328	2151.066280	-310.381371	10.514843	-16.281956	
4.3400	-27.147637	-29.971821	43.048179	24.828029	778.095722	-45.126189	29.954356	-45.000000	39.573046	-45.000000	-45.000000	-1544.340423	-2084.840166	20.026412	-140.338990	360.756969	172.965263	12.991324	12.218157	-0.954943	31.243225	-28.392903	-45.000000	-45.000000	-2794.823009	1350.036725	134.256944	-112.533111	2151.030297	-310.410806	10.557679	-16.300228	
4.3500	-27.341995	-29.815071	42.735103	22.668294	778.342901	-45.020186	29.951266	-45.000000	39.537619	-45.000000	-45.000000	-1544.428032	-2084.817197	20.027210	-140.368142	360.732994	172.918118	12.996273	12.254992	-0.978980	31.254848	-28.388897	-45.000000	-45.000000	-2794.790858	1350.023023	134.246810	-112.500636	2150.988297	-310.454413	10.611737	-16.324293	
4.3600	-27.526789	-29.667592	42.434629	20.499908	778.637851	-44.912127	29.944446	-45.000000	39.506947	-45.000000	-45.000000	-1544.514928	-2084.791919	20.023509	-140.428062	360.704773	172.870018	13.003009	12.290015	-0.991383	31.271048	-28.377569	-45.000000	-45.000000	-2794.770974	1350.010718	134.249787	-112.458082	2150.947379	-310.510333	10.659033	-16.337688	
4.3700	-27.710124	-29.528878	42.137427	18.325271	778.983661	-44.803228	29.941969	-45.000000	39.475718	-45.000000	-45.000000	-1544.599278	-2084.769604	20.021889	-140.511252	360.676550	172.820034	13.008840	12.323461	-1.011006	31.285030	-28.372150	-45.000000	-45.000000	-2794.740387	1349.999439	134.252053	-112.399322	2150.901693	-310.576780	10.712868	-16.353563	
4.3800	-27.887727	-29.399529	41.847561	16.146211	779.383111	-44.694780	29.935829	-45.000000	39.446609	-45.000000	-45.000000	-1544.682391	-2084.746657	20.020792	-140.619879	360.645532	172.766308	13.015701	12.356473	-1.022421	31.302311	-28.362244	-45.000000	-45.000000	-2794.715795	1349.990017	134.261881	-112.326469	2150.854414	-310.651998	10.763606	-16.362647	
4.3900	-28.072273	-29.272444	41.549385	13.964382	779.838474	-44.588056	29.933199	-45.000000	39.412670	-45.000000	-45.000000	-1544.765294	-2084.729522	20.029637	-140.742932	360.617190	172.709483	13.021133	12.391670	-1.045204	31.315111	-28.363095	-45.000000	-45.000000	-2794.671243	1349.985418	134.256788	-112.229726	2150.800934	-310.734928	10.827684	-16.380972	
4.4000	-28.259676	-29.144792	41.244747	11.781274	780.351437	-44.484171	29.924067	-45.000000	39.379406	-45.000000	-45.000000	-1544.848513	-2084.714576	20.044143	-140.881330	360.587537	172.648263	13.028927	12.431081	-1.061261	31.331935	-28.363416	-45.000000	-45.000000	-2794.629086	1349.988717	134.246259	-112.115361	2150.747118	-310.824807	10.891719	-16.395837	
4.4100	-28.453805	-29.014919	40.928436	9.598882	780.922884	-44.384034	29.916566	-45.000000	39.344894	-45.000000	-45.000000	-1544.931837	-2084.703234	20.065447	-141.026198	360.559697	172.581857	13.038963	12.474117	-1.084574	31.344020	-28.371722	-45.000000	-45.000000	-2794.574089	1349.999014	134.219976	-111.983074	2150.690926	-310.922431	10.964802	-16.416244	
4.4200	-28.650304	-28.882078	40.604104	7.419620	781.552946	-44.288330	29.903606	-45.000000	39.311240	-45.000000	-45.000000	-1545.016696	-2084.692008	20.090756	-141.175479	360.531798	172.507782	13.053655	12.522054	-1.103224	31.360175	-28.382954	-45.000000	-45.000000	-2794.519857	1350.014059	134.186702	-111.840353	2150.635499	-311.028997	11.039163	-16.434216	
4.4300	-28.849571	-28.747467	40.272025	5.247415	782.240512	-44.197549	29.889758	-45.000000	39.278599	-45.000000	-45.000000	-1545.101738	-2084.680037	20.117123	-141.321729	360.504253	172.423448	13.072131	12.574241	-1.123662	31.372882	-28.398980	-45.000000	-45.000000	-2794.461298	1350.032378	134.143847	-111.692885	2150.580835	-311.146641	11.117537	-16.452165	
4.4400	-29.044270	-28.614323	39.941627	3.086996	782.983559	-44.112089	29.871479	-45.000000	39.251319	-45.000000	-45.000000	-1545.187093	-2084.662556	20.139538	-141.463331	360.474746	172.324470	13.095936	12.629732	-1.136720	31.392151	-28.415809	-45.000000	-45.000000	-2794.411476	1350.050392	134.106426	-111.552075	2150.531178	-311.277879	11.191563	-16.461971	
4.4500	-29.231712	-28.492220	39.622974	0.944783	783.778272	-44.032137	29.854658	-45.000000	39.230451	-45.000000	-45.000000	-1545.269096	-2084.638125	20.152486	-141.594625	360.444679	172.207014	13.121607	12.685725	-1.146906	31.407136	-28.432703	-45.000000	-45.000000	-2794.366156	1350.065177	134.081264	-111.428079	2150.486866	-311.425941	11.262111	-16.464233	
4.4600	-29.417383	-28.378599	39.309499	-1.173433	784.620857	-43.958088	29.838652	-45.000000	39.211942	-45.000000	-45.000000	-1545.351085	-2084.611341	20.164286	-141.707584	360.415777	172.068639	13.146308	12.745699	-1.156808	31.427779	-28.453777	-45.000000	-45.000000	-2794.319812	1350.077634	134.063407	-111.325332	2150.448434	-311.593291	11.334082	-16.462787	
4.4700	-29.600895	-28.274516	39.003072	-3.262460	785.508243	-43.890832	29.820852	-45.000000	39.196756	-45.000000	-45.000000	-1545.430200	-2084.579975	20.171015	-141.804262	360.383867	171.907269	13.167005	12.809222	-1.163137	31.443673	-28.474087	-45.000000	-45.000000	-2794.274191	1350.087933	134.052136	-111.250754	2150.417290	-311.781001	11.403694	-16.454474	
4.4800	-29.781896	-28.177948	38.703857	-5.320644	786.441431	-43.832600	29.804322	-45.000000	39.183335	-45.000000	-45.000000	-1545.509099	-2084.547040	20.175587	-141.885790	360.352095	171.721209	13.183146	12.876000	-1.168302	31.465914	-28.497162	-45.000000	-45.000000	-2794.227863	1350.097529	134.048028	-111.201555	2150.394201	-311.989517	11.473736	-16.442981	
4.4900	-29.958310	-28.090539	38.415511	-7.348668	787.424493	-43.786632	29.787537	-45.000000	39.171173	-45.000000	-45.000000	-1545.584170	-2084.509687	20.174961	-141.958474	360.318729	171.510174	13.193006	12.944283	-1.169644	31.484325	-28.522632	-45.000000	-45.000000	-2794.178667	1350.105089	134.051540	-111.172796	2150.376308	-312.216327	11.542022	-16.426920	
4.5000	-30.138356	-28.001683	38.122002	-9.350808	788.465694	-43.757377	29.772038	-45.000000	39.159903	-45.000000	-45.000000	-1545.659203	-2084.477156	20.179896	-142.022438	360.288895	171.276727	13.195516	13.020063	-1.172070	31.510119	-28.558526	-45.000000	-45.000000	-2794.116923	1350.115180	134.048584	-111.145762	2150.360098	-312.456208	11.618046	-16.416247	
